<?xml version="1.0" ?><svg style="enable-background:new 0 0 128 128;" version="1.1" viewBox="0 0 128 128" xml:space="preserve" xmlns="http://www.w3.org/2000/svg" xmlns:xlink="http://www.w3.org/1999/xlink"><g id="Layer_1"/><g id="refrigerator"><g><g><path d="M94,121H34c-3.309,0-6-2.691-6-6V13c0-3.309,2.691-6,6-6h60c3.309,0,6,2.691,6,6v102     C100,118.309,97.309,121,94,121z M34,11c-1.103,0-2,0.897-2,2v102c0,1.103,0.897,2,2,2h60c1.103,0,2-0.897,2-2V13     c0-1.103-0.897-2-2-2H34z" style="fill:#505070;"/></g><g><rect height="4" style="fill:#505070;" width="68" x="30" y="62"/></g><g><path d="M90,86c-1.104,0-2-0.896-2-2V74c0-1.104,0.896-2,2-2s2,0.896,2,2v10C92,85.104,91.104,86,90,86z" style="fill:#505070;"/></g><g><path d="M64,50c-1.104,0-2-0.896-2-2V22c0-1.104,0.896-2,2-2s2,0.896,2,2v26C66,49.104,65.104,50,64,50z" style="fill:#505070;"/></g><g><path d="M75.257,43.5c-0.339,0-0.683-0.086-0.998-0.268l-22.518-13c-0.957-0.553-1.284-1.775-0.732-2.732     c0.553-0.956,1.772-1.285,2.732-0.732l22.518,13c0.957,0.553,1.284,1.775,0.732,2.732C76.62,43.142,75.948,43.5,75.257,43.5z" style="fill:#505070;"/></g><g><path d="M52.743,43.5c-0.691,0-1.363-0.358-1.734-1c-0.552-0.957-0.225-2.18,0.732-2.732l22.518-13     c0.958-0.553,2.179-0.224,2.732,0.732c0.552,0.957,0.225,2.18-0.732,2.732l-22.518,13C53.426,43.414,53.082,43.5,52.743,43.5z" style="fill:#505070;"/></g></g></g><g id="washer"/><g id="tv"/><g id="microwawe"/><g id="vacuum_cleaner"/><g id="Gift"/><g id="umbrella"/><g id="rocket"/><g id="basket"/><g id="shopping"/><g id="email"/><g id="message"/><g id="delivery"/><g id="store"/><g id="label"/><g id="phone"/><g id="imac"/><g id="laptop"/><g id="heart_like"/><g id="game"/><g id="wallet"/><g id="camera"/><g id="battery"/><g id="shoes"/><g id="t-shirt"/><g id="pencil"/><g id="people"/><g id="statistics"/><g id="blog"/><g id="rock"/><g id="like"/><g id="dislike"/><g id="speaker"/><g id="pc"/><g id="glasses"/><g id="headphones"/><g id="player"/><g id="book"/><g id="transfer"/><g id="mouse"/><g id="package"/><g id="exellent"/><g id="card"/><g id="induction"/><g id="revers_camera"/><g id="flesh_drive"/><g id="time"/><g id="sale"/><g id="tablet"/><g id="search"/></svg>