<?xml version="1.0" encoding="iso-8859-1"?>
<!-- Generator: Adobe Illustrator 19.0.0, SVG Export Plug-In . SVG Version: 6.00 Build 0)  -->
<svg version="1.1" id="Layer_1" xmlns="http://www.w3.org/2000/svg" xmlns:xlink="http://www.w3.org/1999/xlink" x="0px" y="0px"
	 viewBox="0 0 460 460" style="enable-background:new 0 0 460 460;" xml:space="preserve">
<g id="XMLID_1891_">
	<g id="Page_2">
		<path id="XMLID_1782_" style="fill:#9CA09E;" d="M270,80h170c11.046,0,20,8.954,20,20v260c0,11.046-8.954,20-20,20H270V80z"/>
		<path id="XMLID_1783_" style="fill:#D2D6D5;" d="M240,380V80c0-5.523,4.477-10,10-10h180c11.046,0,20,8.954,20,20v280
			c0,11.046-8.954,20-20,20H250C244.477,390,240,385.523,240,380z"/>
	</g>
	<g id="Content">
		<path id="XMLID_1315_" style="fill:#AAAFAD;" d="M365,100h50c2.761,0,5,2.239,5,5l0,0c0,2.761-2.239,5-5,5h-50
			c-2.761,0-5-2.239-5-5l0,0C360,102.239,362.239,100,365,100z"/>
		<path id="XMLID_1312_" style="fill:#AAAFAD;" d="M365,140h50c2.761,0,5,2.239,5,5l0,0c0,2.761-2.239,5-5,5h-50
			c-2.761,0-5-2.239-5-5l0,0C360,142.239,362.239,140,365,140z"/>
		<path id="XMLID_1314_" style="fill:#AAAFAD;" d="M355,120h60c2.761,0,5,2.239,5,5l0,0c0,2.761-2.239,5-5,5h-60
			c-2.761,0-5-2.239-5-5l0,0C350,122.239,352.239,120,355,120z"/>
		<path id="XMLID_1259_" style="fill:#AAAFAD;" d="M285,280h130c2.761,0,5,2.239,5,5l0,0c0,2.761-2.239,5-5,5H285
			c-2.761,0-5-2.239-5-5l0,0C280,282.239,282.239,280,285,280z"/>
		<path id="XMLID_1264_" style="fill:#AAAFAD;" d="M285,260h130c2.761,0,5,2.239,5,5l0,0c0,2.761-2.239,5-5,5H285
			c-2.761,0-5-2.239-5-5l0,0C280,262.239,282.239,260,285,260z"/>
		<path id="XMLID_1276_" style="fill:#AAAFAD;" d="M285,240h130c2.761,0,5,2.239,5,5l0,0c0,2.761-2.239,5-5,5H285
			c-2.761,0-5-2.239-5-5l0,0C280,242.239,282.239,240,285,240z"/>
		<path id="XMLID_1211_" style="fill:#AAAFAD;" d="M285,350h130c2.761,0,5,2.239,5,5l0,0c0,2.761-2.239,5-5,5H285
			c-2.761,0-5-2.239-5-5l0,0C280,352.239,282.239,350,285,350z"/>
		<path id="XMLID_1212_" style="fill:#AAAFAD;" d="M285,330h130c2.761,0,5,2.239,5,5l0,0c0,2.761-2.239,5-5,5H285
			c-2.761,0-5-2.239-5-5l0,0C280,332.239,282.239,330,285,330z"/>
		<path id="XMLID_1257_" style="fill:#AAAFAD;" d="M285,310h130c2.761,0,5,2.239,5,5l0,0c0,2.761-2.239,5-5,5H285
			c-2.761,0-5-2.239-5-5l0,0C280,312.239,282.239,310,285,310z"/>
		<path id="XMLID_1779_" style="fill:#AD1251;" d="M330,125c0,13.807-11.193,25-25,25s-25-11.193-25-25s11.193-25,25-25
			S330,111.193,330,125z"/>
		<path id="XMLID_1780_" style="fill:#F49638;" d="M320,125c0,8.284-6.716,15-15,15s-15-6.716-15-15s6.716-15,15-15
			S320,116.716,320,125z"/>
		<path id="XMLID_1781_" style="fill:#FCDB70;" d="M312.5,125c0,4.142-3.358,7.5-7.5,7.5s-7.5-3.358-7.5-7.5s3.358-7.5,7.5-7.5
			S312.5,120.858,312.5,125z"/>
	</g>
	<g id="Page_1">
		<path id="XMLID_1766_" style="fill:#515056;" d="M190,380H20c-11.046,0-20-8.954-20-20V100c0-11.046,8.954-20,20-20h170V380z"/>
		<path id="XMLID_1767_" style="fill:#AD1251;" d="M210,390H30c-11.046,0-20-8.954-20-20V90c0-11.046,8.954-20,20-20h180
			c5.523,0,10,4.477,10,10v300C220,385.523,215.523,390,210,390z"/>
		<path id="XMLID_1768_" style="fill:#93063D;" d="M120,230L120,230c-33.137,0-60-26.863-60-60l0,0c0-33.137,26.863-60,60-60l0,0
			c33.137,0,60,26.863,60,60l0,0C180,203.137,153.137,230,120,230z"/>
		<path id="XMLID_1769_" style="fill:#E25C56;" d="M210,390H30c-11.046,0-20-8.954-20-20v-90h210v100
			C220,385.523,215.523,390,210,390z"/>
		<path id="XMLID_1784_" style="fill:#C93F3F;" d="M65,370L65,370c-19.33,0-35-15.67-35-35l0,0c0-19.33,15.67-35,35-35l0,0
			c19.33,0,35,15.67,35,35l0,0C100,354.33,84.33,370,65,370z"/>
		<path id="XMLID_1771_" style="fill:#F49638;" d="M210,390h-90V280h100v100C220,385.523,215.523,390,210,390z"/>
		<path id="XMLID_1773_" style="fill:#F7A952;" d="M175,300h-40c-2.761,0-5-2.239-5-5l0,0c0-2.761,2.239-5,5-5h40
			c2.761,0,5,2.239,5,5l0,0C180,297.761,177.761,300,175,300z"/>
		<path id="XMLID_1772_" style="fill:#F7A952;" d="M155,320h-20c-2.761,0-5-2.239-5-5l0,0c0-2.761,2.239-5,5-5h20
			c2.761,0,5,2.239,5,5l0,0C160,317.761,157.761,320,155,320z"/>
		<path id="XMLID_1770_" style="fill:#7FA3BA;" d="M210,390h-90v-55h100v45C220,385.523,215.523,390,210,390z"/>
	</g>
	<g id="Clips">
		<path id="XMLID_1788_" style="fill:#515056;" d="M250,140h-40c-5.523,0-10-4.477-10-10l0,0c0-5.523,4.477-10,10-10h40
			c5.523,0,10,4.477,10,10l0,0C260,135.523,255.523,140,250,140z"/>
		<path id="XMLID_1787_" style="fill:#515056;" d="M250,190h-40c-5.523,0-10-4.477-10-10l0,0c0-5.523,4.477-10,10-10h40
			c5.523,0,10,4.477,10,10l0,0C260,185.523,255.523,190,250,190z"/>
		<path id="XMLID_1786_" style="fill:#515056;" d="M250,240h-40c-5.523,0-10-4.477-10-10l0,0c0-5.523,4.477-10,10-10h40
			c5.523,0,10,4.477,10,10l0,0C260,235.523,255.523,240,250,240z"/>
		<path id="XMLID_1785_" style="fill:#515056;" d="M250,290h-40c-5.523,0-10-4.477-10-10l0,0c0-5.523,4.477-10,10-10h40
			c5.523,0,10,4.477,10,10l0,0C260,285.523,255.523,290,250,290z"/>
		<path id="XMLID_1377_" style="fill:#515056;" d="M250,340h-40c-5.523,0-10-4.477-10-10l0,0c0-5.523,4.477-10,10-10h40
			c5.523,0,10,4.477,10,10l0,0C260,335.523,255.523,340,250,340z"/>
		<path id="XMLID_1777_" style="fill:#AAAFAD;" d="M235,130h-20c-2.761,0-5-2.239-5-5l0,0c0-2.761,2.239-5,5-5h20
			c2.761,0,5,2.239,5,5l0,0C240,127.761,237.761,130,235,130z"/>
		<path id="XMLID_1776_" style="fill:#AAAFAD;" d="M235,180h-20c-2.761,0-5-2.239-5-5l0,0c0-2.761,2.239-5,5-5h20
			c2.761,0,5,2.239,5,5l0,0C240,177.761,237.761,180,235,180z"/>
		<path id="XMLID_1775_" style="fill:#AAAFAD;" d="M235,230h-20c-2.761,0-5-2.239-5-5l0,0c0-2.761,2.239-5,5-5h20
			c2.761,0,5,2.239,5,5l0,0C240,227.761,237.761,230,235,230z"/>
		<path id="XMLID_1774_" style="fill:#AAAFAD;" d="M235,280h-20c-2.761,0-5-2.239-5-5l0,0c0-2.761,2.239-5,5-5h20
			c2.761,0,5,2.239,5,5l0,0C240,277.761,237.761,280,235,280z"/>
		<path id="XMLID_1778_" style="fill:#AAAFAD;" d="M235,330h-20c-2.761,0-5-2.239-5-5l0,0c0-2.761,2.239-5,5-5h20
			c2.761,0,5,2.239,5,5l0,0C240,327.761,237.761,330,235,330z"/>
	</g>
</g>
<g>
</g>
<g>
</g>
<g>
</g>
<g>
</g>
<g>
</g>
<g>
</g>
<g>
</g>
<g>
</g>
<g>
</g>
<g>
</g>
<g>
</g>
<g>
</g>
<g>
</g>
<g>
</g>
<g>
</g>
</svg>
