<?xml version="1.0" encoding="iso-8859-1"?>
<!-- Generator: Adobe Illustrator 19.0.0, SVG Export Plug-In . SVG Version: 6.00 Build 0)  -->
<svg version="1.1" id="Layer_1" xmlns="http://www.w3.org/2000/svg" xmlns:xlink="http://www.w3.org/1999/xlink" x="0px" y="0px"
	 viewBox="0 0 473.654 473.654" style="enable-background:new 0 0 473.654 473.654;" xml:space="preserve">
<circle style="fill:#49A0AE;" cx="236.827" cy="236.827" r="236.827"/>
<path style="fill:#636463;" d="M253.117,88.624c0,2.674-2.165,4.835-4.835,4.835H231.45c-2.67,0-4.835-2.165-4.835-4.835V57.485
	c0-2.67,2.165-4.835,4.835-4.835h16.832c2.67,0,4.835,2.169,4.835,4.835V88.624z"/>
<path style="fill:#5E5F5E;" d="M240.122,93.463h-8.672c-2.67,0-4.835-2.165-4.835-4.835V57.488c0-2.67,2.165-4.835,4.835-4.835
	h8.672V93.463z"/>
<rect x="172.955" y="85.711" style="fill:#ECE9E9;" width="131.708" height="111.57"/>
<rect x="172.955" y="85.711" style="fill:#E7E7E7;" width="66.377" height="111.57"/>
<rect x="180.734" y="93.041" style="fill:#E4DEDF;" width="116.226" height="40.339"/>
<rect x="184.585" y="97.341" style="fill:#B1D4D7;" width="108.485" height="31.764"/>
<rect x="184.585" y="97.341" style="fill:#A7CACB;" width="54.235" height="31.764"/>
<polygon style="fill:#E5DBC5;" points="318.38,366.198 160.832,366.198 109.439,183.34 239.606,167.843 369.773,183.34 "/>
<polygon style="fill:#E8E1D3;" points="318.38,366.198 239.606,366.198 239.606,167.843 369.773,183.34 "/>
<path style="fill:#A7CACB;" d="M84.372,371.1c0,0,127.852-76.732,275.58,0H84.372z"/>
<path style="fill:#B1D4D7;" d="M406.967,374.455c0,0-67.664-68.184-187.502,0H406.967z"/>
<path style="fill:#9CC0C1;" d="M249.16,374.713c0,0-99.383-68.18-187.502,0H249.16z"/>
<path style="fill:#5F6060;" d="M315.007,241.932l-6.129,8.074l3.534-0.142c-0.535,4.869-4.495,8.915-9.704,9.895l-1.028-25.96
	l4.674-0.187c1.017-0.041,1.78-0.984,1.728-2.146c-0.045-1.159-0.868-2.038-1.892-1.997l-4.674,0.191l-0.213-5.284
	c2.603-1.07,4.323-3.661,4.215-6.518c-0.146-3.728-3.343-6.641-7.12-6.484c-3.77,0.15-6.728,3.302-6.578,7.03
	c0.12,2.984,2.229,5.497,5.082,6.249l0.206,5.179l-4.211,0.168c-1.017,0.041-1.78,0.98-1.731,2.139
	c0.049,1.167,0.875,2.046,1.896,2.001l4.211-0.165l1.028,25.848c-5.037-0.77-8.986-4.375-9.869-9.001l3.298-0.131l-6.312-7.576
	l-6.129,8.07l3.781-0.153c1.511,7.621,7.928,13.264,15.815,13.874c0.419,0.755,1.099,1.204,1.866,1.174
	c0.744-0.026,1.376-0.501,1.743-1.257c8.029-0.991,14.349-7.285,15.284-15.171l3.545-0.142L315.007,241.932z M298.583,215.972
	c1.219-0.045,2.247,0.875,2.296,2.061c0.026,0.636-0.254,1.227-0.733,1.638c-0.797-0.636-1.952-0.52-2.621,0.236
	c-0.625-0.348-1.036-0.972-1.062-1.702C296.414,217.03,297.367,216.024,298.583,215.972z"/>
<polygon style="fill:#E5DBC5;" points="112.008,192.487 109.439,183.34 239.606,167.843 369.773,183.34 366.691,194.297 
	240.642,178.172 "/>
<polygon style="fill:#D7D0BC;" points="112.008,192.487 109.439,183.34 239.606,167.843 239.58,178.295 "/>
<g>
</g>
<g>
</g>
<g>
</g>
<g>
</g>
<g>
</g>
<g>
</g>
<g>
</g>
<g>
</g>
<g>
</g>
<g>
</g>
<g>
</g>
<g>
</g>
<g>
</g>
<g>
</g>
<g>
</g>
</svg>
