<?xml version="1.0" ?><!DOCTYPE svg  PUBLIC '-//W3C//DTD SVG 1.0//EN'  'http://www.w3.org/TR/2001/REC-SVG-20010904/DTD/svg10.dtd'><svg height="64px" style="shape-rendering:geometricPrecision; text-rendering:geometricPrecision; image-rendering:optimizeQuality; fill-rule:evenodd; clip-rule:evenodd" version="1.0" viewBox="0 0 21911 26702" width="53px" xml:space="preserve" xmlns="http://www.w3.org/2000/svg" xmlns:xlink="http://www.w3.org/1999/xlink"><defs><style type="text/css">
   <![CDATA[
    .fil0 {fill:#27afb7;fill-rule:nonzero}
   ]]>
  </style></defs><g id="Layer_x0020_1"><path class="fil0" d="M10426 5020l84 -5c201,-10 384,-15 549,-15 2995,0 5708,1215 7671,3178l1 1 1 -1c1963,1963 3178,4677 3178,7673 0,2995 -1215,5708 -3178,7671l-2 2c-1963,1963 -4676,3178 -7671,3178 -2996,0 -5710,-1215 -7673,-3178l-24 -26c-1949,-1961 -3154,-4665 -3154,-7648 0,-1097 165,-2159 471,-3164 290,-951 706,-1846 1229,-2666 -769,-1308 -1443,-2580 -1754,-3554l-9 -35 -1 -6 -1 -7c-47,-197 -82,-394 -105,-587 -24,-206 -37,-411 -37,-616 0,-1438 584,-2741 1528,-3686l1 -1 1 -1 0 0c944,-943 2247,-1527 3685,-1527 1438,0 2741,584 3686,1528l1 1 1 1 0 0c901,902 1473,2130 1523,3490zm-5211 -2221c595,0 1136,242 1527,633l2 2c391,391 633,932 633,1527 0,596 -242,1138 -633,1529l-25 23c-389,378 -920,610 -1504,610 -596,0 -1138,-242 -1529,-633 -391,-391 -633,-933 -633,-1529 0,-596 243,-1137 634,-1528l-1 -1c391,-391 933,-633 1529,-633zm939 1222c-238,-239 -571,-387 -939,-387 -366,0 -698,149 -939,389l-1 -1 -1 1c-239,238 -387,571 -387,939 0,366 149,698 389,939 240,240 572,389 939,389 358,0 683,-140 919,-368l19 -21c240,-240 389,-572 389,-939 0,-368 -148,-700 -387,-939l-2 -2zm-3407 5783l3 5 2 3 5 9 5 8 4 9c371,623 761,1252 1140,1858 14,19 27,39 37,60l365 581c324,516 632,1006 906,1455 274,-448 581,-939 906,-1455l363 -579c11,-22 24,-42 38,-61 1157,-1848 2417,-3919 2907,-5323l12 -36 1 -2 3 -9 34 -102c35,-153 65,-315 84,-485l0 -6c20,-167 30,-340 30,-519 0,-1211 -490,-2306 -1281,-3097l-2 -2c-791,-791 -1886,-1281 -3097,-1281 -1211,0 -2306,490 -3097,1281l-2 2c-791,791 -1281,1886 -1281,3097 0,179 10,352 30,519l0 1c20,172 49,336 85,490 306,953 1005,2248 1797,3579zm-355 1023c-133,229 -257,464 -372,703l804 0 -432 -703zm953 1538l-1679 0c-69,185 -132,373 -190,562 -280,920 -431,1902 -431,2922 0,1225 220,2400 623,3485l3568 0c-441,-1505 -590,-3088 -448,-4644 -320,-540 -736,-1201 -1182,-1910l-261 -416zm2274 2368c-145,1544 17,3117 486,4601l4538 0 0 -6969 -3557 0 -260 415c-458,729 -883,1405 -1207,1953zm1988 -3204l3035 0 0 -5083c-162,101 -317,204 -466,308 -487,1323 -1533,3102 -2569,4774zm4551 -5636c1638,1078 2892,2494 3761,4090 272,499 505,1016 702,1546l3478 0c-494,-1031 -1158,-1964 -1956,-2763l1 -1c-1569,-1568 -3658,-2618 -5986,-2872zm4738 6471c324,1119 488,2282 489,3445 2,1189 -166,2380 -500,3525l3569 0c403,-1085 623,-2260 623,-3485 0,-1225 -220,-2400 -623,-3484l-3557 0zm-288 7804c-188,506 -411,1000 -668,1478 -871,1620 -2136,3062 -3793,4160 2333,-251 4425,-1303 5997,-2874 799,-799 1463,-1733 1956,-2764l-3492 0zm-5130 5080c1640,-1034 2884,-2425 3729,-3997 189,-352 359,-714 508,-1083l-4237 0 0 5080zm4538 -5915c361,-1141 540,-2333 539,-3525 -1,-1165 -177,-2331 -526,-3445l-4551 0 0 6969 4538 0zm-286 -7804c-158,-392 -338,-776 -541,-1149 -843,-1551 -2081,-2919 -3711,-3935l0 5084 4252 0zm-9324 8639c124,307 262,608 414,904l0 0c846,1646 2121,3103 3823,4177l0 -5080 -4237 0zm3567 5638c-1723,-1141 -3021,-2654 -3894,-4353l0 0 0 -1c-214,-418 -403,-846 -566,-1284l-3492 0c489,1022 1146,1949 1935,2743l22 20c1571,1571 3663,2623 5995,2875z"/></g></svg>